<svg xmlns="http://www.w3.org/2000/svg" width="512" height="512" viewBox="0 0 512 512">
  <rect width="512" height="512" fill="#0a0a0a" rx="64"/>
  <g transform="translate(64, 64)">
    <rect x="0" y="0" width="96" height="96" fill="#dc2626"/>
    <rect x="96" y="0" width="96" height="96" fill="#ffffff"/>
    <rect x="192" y="0" width="96" height="96" fill="#dc2626"/>
    <rect x="288" y="0" width="96" height="96" fill="#ffffff"/>
    <rect x="0" y="96" width="96" height="96" fill="#ffffff"/>
    <rect x="96" y="96" width="96" height="96" fill="#dc2626"/>
    <rect x="192" y="96" width="96" height="96" fill="#ffffff"/>
    <rect x="288" y="96" width="96" height="96" fill="#dc2626"/>
    <rect x="0" y="192" width="96" height="96" fill="#dc2626"/>
    <rect x="96" y="192" width="96" height="96" fill="#ffffff"/>
    <rect x="192" y="192" width="96" height="96" fill="#dc2626"/>
    <rect x="288" y="192" width="96" height="96" fill="#ffffff"/>
    <rect x="0" y="288" width="96" height="96" fill="#ffffff"/>
    <rect x="96" y="288" width="96" height="96" fill="#dc2626"/>
    <rect x="192" y="288" width="96" height="96" fill="#ffffff"/>
    <rect x="288" y="288" width="96" height="96" fill="#dc2626"/>
  </g>
</svg>
